{
  "accessors": [
    {
      "bufferView": 2,
      "componentType": 5126,
      "count": 19778,
      "max": [
        267.27703857421875,
        163.30072021484375,
        123.06047821044922
      ],
      "min": [
        -251.05836486816406,
        -161.99951171875,
        -0.3809930086135864
      ],
      "type": "VEC3"
    },
    {
      "bufferView": 2,
      "byteOffset": 237336,
      "componentType": 5126,
      "count": 19778,
      "max": [
        0.9999690055847168,
        1.0,
        1.0
      ],
      "min": [
        -1.0,
        -0.9999690055847168,
        -1.0
      ],
      "type": "VEC3"
    },
    {
      "bufferView": 3,
      "componentType": 5126,
      "count": 19778,
      "max": [
        1.0,
        0.9999691843986511,
        1.0,
        1.0
      ],
      "min": [
        -1.0,
        -0.9999690651893616,
        -1.0,
        -1.0
      ],
      "type": "VEC4"
    },
    {
      "bufferView": 1,
      "componentType": 5126,
      "count": 19778,
      "max": [
        0.99560546875,
        0.9965133666992188
      ],
      "min": [
        0.0,
        0.0
      ],
      "type": "VEC2"
    },
    {
      "bufferView": 0,
      "componentType": 5125,
      "count": 59646,
      "type": "SCALAR"
    },
    {
      "bufferView": 2,
      "byteOffset": 474672,
      "componentType": 5126,
      "count": 690,
      "max": [
        178.42236328125,
        95.98196411132813,
        123.01632690429688
      ],
      "min": [
        -113.75279998779297,
        -113.52899932861328,
        81.00956726074219
      ],
      "type": "VEC3"
    },
    {
      "bufferView": 2,
      "byteOffset": 482952,
      "componentType": 5126,
      "count": 690,
      "max": [
        0.8971095681190491,
        0.9909899830818176,
        0.9327262043952942
      ],
      "min": [
        -0.9799998998641968,
        -0.8551716208457947,
        -0.9295085072517395
      ],
      "type": "VEC3"
    },
    {
      "bufferView": 1,
      "byteOffset": 158224,
      "componentType": 5126,
      "count": 690,
      "max": [
        184.25,
        80.375
      ],
      "min": [
        -98.875,
        -78.375
      ],
      "type": "VEC2"
    },
    {
      "bufferView": 0,
      "byteOffset": 238584,
      "componentType": 5125,
      "count": 2400,
      "type": "SCALAR"
    },
    {
      "bufferView": 2,
      "byteOffset": 491232,
      "componentType": 5126,
      "count": 3883,
      "max": [
        273.12188720703125,
        163.9390869140625,
        129.34963989257813
      ],
      "min": [
        -251.05836486816406,
        -166.24209594726563,
        20.02946662902832
      ],
      "type": "VEC3"
    },
    {
      "bufferView": 2,
      "byteOffset": 537828,
      "componentType": 5126,
      "count": 3883,
      "max": [
        0.9999690055847168,
        0.9999380111694336,
        0.9998451471328735
      ],
      "min": [
        -0.9998451471328735,
        -0.9998760223388672,
        -1.0
      ],
      "type": "VEC3"
    },
    {
      "bufferView": 3,
      "byteOffset": 316448,
      "componentType": 5126,
      "count": 3883,
      "max": [
        0.9979910850524902,
        0.9999690055847168,
        0.9999690055847168,
        -1.0
      ],
      "min": [
        -0.9999380111694336,
        -0.9994733929634094,
        -0.9999690055847168,
        -1.0
      ],
      "type": "VEC4"
    },
    {
      "bufferView": 1,
      "byteOffset": 163744,
      "componentType": 5126,
      "count": 3883,
      "max": [
        0.9912109375,
        0.9957122802734375
      ],
      "min": [
        0.008697509765625,
        0.00390625
      ],
      "type": "VEC2"
    },
    {
      "bufferView": 0,
      "byteOffset": 248184,
      "componentType": 5125,
      "count": 12762,
      "type": "SCALAR"
    }
  ],
  "asset": {
    "extras": {
      "author": "bar00d (https://sketchfab.com/bar00d)",
      "license": "CC-BY-4.0 (http://creativecommons.org/licenses/by/4.0/)",
      "source": "https://sketchfab.com/3d-models/sports-car-supercar-3d-model-0a530871aec04446a46526b0fd729bf4",
      "title": "SPORTS CAR | SUPERCAR 3D MODEL"
    },
    "generator": "Sketchfab-16.14.0",
    "version": "2.0"
  },
  "bufferViews": [
    {
      "buffer": 0,
      "byteLength": 299232,
      "name": "floatBufferViews",
      "target": 34963
    },
    {
      "buffer": 0,
      "byteLength": 194808,
      "byteOffset": 299232,
      "byteStride": 8,
      "name": "floatBufferViews",
      "target": 34962
    },
    {
      "buffer": 0,
      "byteLength": 584424,
      "byteOffset": 494040,
      "byteStride": 12,
      "name": "floatBufferViews",
      "target": 34962
    },
    {
      "buffer": 0,
      "byteLength": 378576,
      "byteOffset": 1078464,
      "byteStride": 16,
      "name": "floatBufferViews",
      "target": 34962
    }
  ],
  "buffers": [
    {
      "byteLength": 1457040,
      "uri": "scene.bin"
    }
  ],
  "extensionsUsed": [
    "KHR_materials_specular",
    "KHR_materials_emissive_strength"
  ],
  "images": [
    {
      "uri": "textures/CAR_INSIDE_Mat_baseColor.png"
    },
    {
      "uri": "textures/CAR_INSIDE_Mat_normal.png"
    },
    {
      "uri": "textures/CAR_TOP_Mat_baseColor.png"
    },
    {
      "uri": "textures/CAR_TOP_Mat_normal.png"
    }
  ],
  "materials": [
    {
      "doubleSided": true,
      "extensions": {
        "KHR_materials_specular": {
          "specularColorFactor": [
            1.0,
            1.0,
            1.0
          ],
          "specularFactor": 0.07161926588728651
        }
      },
      "name": "CAR_INSIDE_Mat",
      "normalTexture": {
        "index": 1
      },
      "pbrMetallicRoughness": {
        "baseColorTexture": {
          "index": 0
        },
        "roughnessFactor": 0.5017127671246236
      }
    },
    {
      "alphaMode": "BLEND",
      "doubleSided": true,
      "name": "MI_MS_Glass_Material_Inst",
      "pbrMetallicRoughness": {
        "baseColorFactor": [
          0.09440349837256647,
          0.09440349837256647,
          0.09440349837256647,
          0.03504772585973595
        ],
        "metallicFactor": 0.8152405797808145,
        "roughnessFactor": 0.05066377345150008
      }
    },
    {
      "doubleSided": true,
      "extensions": {
        "KHR_materials_emissive_strength": {
          "emissiveStrength": 1.2647657592861234
        },
        "KHR_materials_specular": {
          "specularColorFactor": [
            1.0,
            1.0,
            1.0
          ],
          "specularFactor": 0.5958113396155111
        }
      },
      "name": "CAR_TOP_Mat",
      "normalTexture": {
        "index": 3,
        "scale": 0.5
      },
      "pbrMetallicRoughness": {
        "baseColorTexture": {
          "index": 2
        },
        "roughnessFactor": 0.2
      }
    }
  ],
  "meshes": [
    {
      "name": "LYKAN_HYPERSPORT_CAR_INSIDE_Mat_0",
      "primitives": [
        {
          "attributes": {
            "NORMAL": 1,
            "POSITION": 0,
            "TANGENT": 2,
            "TEXCOORD_0": 3
          },
          "indices": 4,
          "material": 0,
          "mode": 4
        }
      ]
    },
    {
      "name": "LYKAN_HYPERSPORT_MI_MS_Glass_Material_Inst_0",
      "primitives": [
        {
          "attributes": {
            "NORMAL": 6,
            "POSITION": 5,
            "TEXCOORD_0": 7
          },
          "indices": 8,
          "material": 1,
          "mode": 4
        }
      ]
    },
    {
      "name": "LYKAN_HYPERSPORT_CAR_TOP_Mat_0",
      "primitives": [
        {
          "attributes": {
            "NORMAL": 10,
            "POSITION": 9,
            "TANGENT": 11,
            "TEXCOORD_0": 12
          },
          "indices": 13,
          "material": 2,
          "mode": 4
        }
      ]
    }
  ],
  "nodes": [
    {
      "children": [
        1
      ],
      "matrix": [
        1.0,
        0.0,
        0.0,
        0.0,
        0.0,
        -3.828568672208042e-16,
        1.0,
        0.0,
        0.0,
        -1.0,
        -3.828568672208042e-16,
        0.0,
        0.0,
        0.0,
        0.0,
        1.0
      ],
      "name": "Sketchfab_model"
    },
    {
      "children": [
        2
      ],
      "matrix": [
        0.009999999776482582,
        0.0,
        0.0,
        0.0,
        0.0,
        -0.009999999776482582,
        0.0,
        0.0,
        0.0,
        0.0,
        -0.009999999776482582,
        0.0,
        0.0,
        0.0,
        0.0,
        1.0
      ],
      "name": "9ea5c07bda904c71bd59a7624e124406.fbx"
    },
    {
      "children": [
        3
      ],
      "name": "RootNode"
    },
    {
      "children": [
        4,
        5,
        6
      ],
      "name": "LYKAN_HYPERSPORT"
    },
    {
      "mesh": 0,
      "name": "LYKAN_HYPERSPORT_CAR_INSIDE_Mat_0"
    },
    {
      "mesh": 1,
      "name": "LYKAN_HYPERSPORT_MI_MS_Glass_Material_Inst_0"
    },
    {
      "mesh": 2,
      "name": "LYKAN_HYPERSPORT_CAR_TOP_Mat_0"
    }
  ],
  "samplers": [
    {
      "magFilter": 9729,
      "minFilter": 9987,
      "wrapS": 10497,
      "wrapT": 10497
    }
  ],
  "scene": 0,
  "scenes": [
    {
      "name": "Sketchfab_Scene",
      "nodes": [
        0
      ]
    }
  ],
  "textures": [
    {
      "sampler": 0,
      "source": 0
    },
    {
      "sampler": 0,
      "source": 1
    },
    {
      "sampler": 0,
      "source": 2
    },
    {
      "sampler": 0,
      "source": 3
    }
  ]
}
