{
  "accessors": [
    {
      "bufferView": 2,
      "componentType": 5126,
      "count": 65532,
      "max": [
        0.06687629222869873,
        0.08318471908569336,
        0.05731165409088135
      ],
      "min": [
        -0.05707240104675293,
        -0.06705033779144287,
        -0.13561421632766724
      ],
      "type": "VEC3"
    },
    {
      "bufferView": 2,
      "byteOffset": 786384,
      "componentType": 5126,
      "count": 65532,
      "max": [
        0.9999305605888367,
        0.9999523758888245,
        0.9999975562095642
      ],
      "min": [
        -0.9999794363975525,
        -0.9999803900718689,
        -0.9999787211418152
      ],
      "type": "VEC3"
    },
    {
      "bufferView": 1,
      "componentType": 5126,
      "count": 65532,
      "max": [
        0.9995114207267761,
        0.9663084745407104
      ],
      "min": [
        0.00048828125,
        0.0004883004585281014
      ],
      "type": "VEC2"
    },
    {
      "bufferView": 0,
      "componentType": 5125,
      "count": 211872,
      "type": "SCALAR"
    },
    {
      "bufferView": 2,
      "byteOffset": 1572768,
      "componentType": 5126,
      "count": 43666,
      "max": [
        0.06228983402252197,
        0.061281800270080566,
        0.06413227319717407
      ],
      "min": [
        -0.06374990940093994,
        -0.05864918231964111,
        -0.13540178537368774
      ],
      "type": "VEC3"
    },
    {
      "bufferView": 2,
      "byteOffset": 2096760,
      "componentType": 5126,
      "count": 43666,
      "max": [
        0.9999832510948181,
        0.9999943971633911,
        0.9997631907463074
      ],
      "min": [
        -0.9999858140945435,
        -0.9999868273735046,
        -0.9993879795074463
      ],
      "type": "VEC3"
    },
    {
      "bufferView": 1,
      "byteOffset": 524256,
      "componentType": 5126,
      "count": 43666,
      "max": [
        0.9995114207267761,
        0.9663084745407104
      ],
      "min": [
        0.00048828125,
        0.0004883004585281014
      ],
      "type": "VEC2"
    },
    {
      "bufferView": 0,
      "byteOffset": 847488,
      "componentType": 5125,
      "count": 144936,
      "type": "SCALAR"
    }
  ],
  "asset": {
    "extras": {
      "author": "doubletwisted (https://sketchfab.com/dominikbargiel97)",
      "license": "CC-BY-4.0 (http://creativecommons.org/licenses/by/4.0/)",
      "source": "https://sketchfab.com/3d-models/head-of-david-but-with-hay-585af747e89f4e78afda322c487a5059",
      "title": "Head of David but with hay"
    },
    "generator": "Sketchfab-12.65.0",
    "version": "2.0"
  },
  "bufferViews": [
    {
      "buffer": 0,
      "byteLength": 1427232,
      "name": "floatBufferViews",
      "target": 34963
    },
    {
      "buffer": 0,
      "byteLength": 873584,
      "byteOffset": 1427232,
      "byteStride": 8,
      "name": "floatBufferViews",
      "target": 34962
    },
    {
      "buffer": 0,
      "byteLength": 2620752,
      "byteOffset": 2300816,
      "byteStride": 12,
      "name": "floatBufferViews",
      "target": 34962
    }
  ],
  "buffers": [
    {
      "byteLength": 4921568,
      "uri": "scene.bin"
    }
  ],
  "images": [
    {
      "uri": "textures/Material_u1_v1_baseColor.png"
    }
  ],
  "materials": [
    {
      "doubleSided": true,
      "name": "Material_u1_v1",
      "pbrMetallicRoughness": {
        "baseColorTexture": {
          "index": 0
        },
        "metallicFactor": 0.0,
        "roughnessFactor": 0.9159103585
      }
    }
  ],
  "meshes": [
    {
      "name": "meshNode_Material_u1_v1_0",
      "primitives": [
        {
          "attributes": {
            "NORMAL": 1,
            "POSITION": 0,
            "TEXCOORD_0": 2
          },
          "indices": 3,
          "material": 0,
          "mode": 4
        }
      ]
    },
    {
      "name": "meshNode_Material_u1_v1_0",
      "primitives": [
        {
          "attributes": {
            "NORMAL": 5,
            "POSITION": 4,
            "TEXCOORD_0": 6
          },
          "indices": 7,
          "material": 0,
          "mode": 4
        }
      ]
    }
  ],
  "nodes": [
    {
      "children": [
        1
      ],
      "matrix": [
        1.0,
        -2.8327693431939995e-16,
        1.6081226229577284e-16,
        0.0,
        1.6081226229577292e-16,
        2.2204460492503128e-16,
        -1.0,
        0.0,
        2.832769343193999e-16,
        1.0,
        2.220446049250313e-16,
        0.0,
        2.225306749343872,
        -22.6518497467041,
        -1.098212356310102e-06,
        1.0
      ],
      "name": "Sketchfab_model"
    },
    {
      "children": [
        2
      ],
      "matrix": [
        1.0,
        0.0,
        0.0,
        0.0,
        0.0,
        0.0,
        1.0,
        0.0,
        0.0,
        -1.0,
        0.0,
        0.0,
        0.0,
        0.0,
        0.0,
        1.0
      ],
      "name": "untitled.fbx"
    },
    {
      "children": [
        3
      ],
      "name": "RootNode"
    },
    {
      "children": [
        4,
        5
      ],
      "matrix": [
        126.28752899169922,
        0.0,
        0.0,
        0.0,
        0.0,
        -2.057485002204324e-05,
        -126.28752899169756,
        0.0,
        0.0,
        126.28752899169756,
        -2.057485002204324e-05,
        0.0,
        3.728073215804664e-15,
        16.789749145507813,
        0.1271950602531433,
        1.0
      ],
      "name": "meshNode"
    },
    {
      "mesh": 0,
      "name": "meshNode_Material_u1_v1_0"
    },
    {
      "mesh": 1,
      "name": "meshNode_Material_u1_v1_0"
    }
  ],
  "samplers": [
    {
      "magFilter": 9729,
      "minFilter": 9987,
      "wrapS": 10497,
      "wrapT": 10497
    }
  ],
  "scene": 0,
  "scenes": [
    {
      "name": "Sketchfab_Scene",
      "nodes": [
        0
      ]
    }
  ],
  "textures": [
    {
      "sampler": 0,
      "source": 0
    }
  ]
}
